/* XPM */ 
static const char * ycoin48_xpm[] = {
"48 48 188 2",
"  	c None",
"! 	c black",
"# 	c #040404",
"$ 	c #313131",
"% 	c #676767",
"& 	c #8D8D8D",
"' 	c #ADADAD",
"( 	c #C2C2C2",
") 	c #CECECE",
"* 	c #D1D1D1",
"+ 	c #C7C7C7",
", 	c #B8B8B8",
"- 	c #9A9A9A",
". 	c #787878",
"0 	c #474747",
"1 	c #111111",
"2 	c #161616",
"3 	c #3F3F3F",
"4 	c #888888",
"5 	c #C8C8C8",
"6 	c #D4D4D4",
"7 	c #D3D3D3",
"8 	c #A3A3A3",
"9 	c #5D5D5D",
": 	c #1C1C1C",
"; 	c #2D2D2D",
"< 	c #555555",
"= 	c #AAAAAA",
"> 	c #D6D6D6",
"? 	c #C5C5C5",
"@ 	c #444444",
"A 	c #4F4F4F",
"B 	c #A1A1A1",
"C 	c #D9D9D9",
"D 	c #C1C1C1",
"E 	c #686868",
"F 	c #5A5A5A",
"G 	c #797979",
"H 	c #DCDCDC",
"I 	c #C6C6C6",
"J 	c #A8A8A8",
"K 	c #929292",
"L 	c #8B8B8B",
"M 	c #8F8F8F",
"N 	c #9E9E9E",
"O 	c #B9B9B9",
"P 	c #D7D7D7",
"Q 	c #DBDBDB",
"R 	c #9B9B9B",
"S 	c #5B5B5B",
"T 	c #717171",
"U 	c #989898",
"V 	c #DEDEDE",
"W 	c #909090",
"X 	c #5E5E5E",
"Y 	c #7E7E7E",
"Z 	c #AEAEAE",
"[ 	c #DADADA",
"] 	c #BCBCBC",
"^ 	c #757575",
"_ 	c #E0E0E0",
"` 	c #C4C4C4",
"a 	c #878787",
"b 	c #6B6B6B",
"c 	c #767676",
"d 	c #ABABAB",
"e 	c #CBCBCB",
"f 	c #B6B6B6",
"g 	c #E3E3E3",
"h 	c #DFDFDF",
"i 	c #A4A4A4",
"j 	c #7C7C7C",
"k 	c #CFCFCF",
"l 	c #9F9F9F",
"m 	c #C0C0C0",
"n 	c #E4E4E4",
"o 	c #E5E5E5",
"p 	c #D8D8D8",
"q 	c #969696",
"r 	c #8A8A8A",
"s 	c #BFBFBF",
"t 	c #D5D5D5",
"u 	c #C3C3C3",
"v 	c #E2E2E2",
"w 	c #E7E7E7",
"x 	c #A0A0A0",
"y 	c #999999",
"z 	c #B4B4B4",
"{ 	c #B1B1B1",
"| 	c #EAEAEA",
"} 	c #A6A6A6",
"~ 	c white",
" !	c #F8F8F8",
"!!	c #8E8E8E",
"#!	c #CACACA",
"$!	c #ECECEC",
"%!	c #EDEDED",
"&!	c #EBEBEB",
"'!	c #B2B2B2",
"(!	c #A5A5A5",
")!	c #F9F9F9",
"*!	c #E1E1E1",
"+!	c #8C8C8C",
",!	c #EFEFEF",
"-!	c #919191",
".!	c #898989",
"0!	c #E8E8E8",
"1!	c #7B7B7B",
"2!	c #949494",
"3!	c #B3B3B3",
"4!	c #939393",
"5!	c #F0F0F0",
"6!	c #F1F1F1",
"7!	c #E6E6E6",
"8!	c #B0B0B0",
"9!	c #666666",
":!	c #F3F3F3",
";!	c #CCCCCC",
"<!	c #B7B7B7",
"=!	c #828282",
">!	c #BABABA",
"?!	c #EEEEEE",
"@!	c #545454",
"A!	c #F6F6F6",
"B!	c #BEBEBE",
"C!	c #838383",
"D!	c #383838",
"E!	c #4B4B4B",
"F!	c #959595",
"G!	c #262626",
"H!	c #6F6F6F",
"I!	c #FBFBFB",
"J!	c #C9C9C9",
"K!	c #F4F4F4",
"L!	c #131313",
"M!	c #FDFDFD",
"N!	c #FCFCFC",
"O!	c #D0D0D0",
"P!	c #A9A9A9",
"Q!	c #DDDDDD",
"R!	c #BDBDBD",
"S!	c #FEFEFE",
"T!	c #0C0C0C",
"U!	c #070707",
"V!	c #252525",
"W!	c #0E0E0E",
"X!	c #363636",
"Y!	c #D2D2D2",
"Z!	c #BBBBBB",
"[!	c #3B3B3B",
"]!	c #1D1D1D",
"^!	c #9D9D9D",
"_!	c #353535",
"`!	c #292929",
"a!	c #303030",
"b!	c #848484",
"c!	c #373737",
"d!	c #CDCDCD",
"e!	c #4C4C4C",
"f!	c #E9E9E9",
"g!	c #7F7F7F",
"h!	c #464646",
"i!	c #5F5F5F",
"j!	c #4E4E4E",
"k!	c #808080",
"l!	c #F7F7F7",
"m!	c #F5F5F5",
"n!	c #A7A7A7",
"o!	c #606060",
"p!	c #AFAFAF",
"q!	c #FAFAFA",
"r!	c #818181",
"s!	c #626262",
"t!	c #A2A2A2",
"u!	c #868686",
"v!	c #777777",
"w!	c #ACACAC",
"x!	c #747474",
"y!	c #858585",
"z!	c #B5B5B5",
"{!	c #696969",
"|!	c #7D7D7D",
"}!	c #595959",
"~!	c #707070",
" #	c #5C5C5C",
"!#	c #494949",
"##	c #535353",
"$#	c #393939",
"                                    ! ! ! ! ! ! ! ! ! ! ! !                                     ",
"                              ! ! ! ! ! ! ! ! ! ! ! ! ! ! ! ! ! !                               ",
"                          ! ! ! # $ % & ' ( ) * + , - . 0 1 ! ! ! ! !                           ",
"                      2 2 2 3 4 5 6 6 6 6 6 6 6 6 6 6 6 6 7 8 9 : 2 2 2 2                       ",
"                    ; ; < = > > > > > > > > > > > > > > > > > > ? . $ ; ; ;                     ",
"                  @ A B C C C C C C C C C C C C C C C C C C C C C C D E @ @ @                   ",
"              F F G ) H H H H H H H H I J K L 4 M N O P H H H H H H H Q R S F F F               ",
"            T T U H V V V V V V ( W E F F F F F F F F X Y Z [ V V V V V V ] ^ T T T             ",
"          4 4 ' _ _ _ _ _ _ ` a b b b b b b b b b b b b b b c d V _ _ _ _ _ e L 4 4 4           ",
"          N f g g g g g h i j j j j j j j j j j j j j j j j j j & ) g g g g g k l N N           ",
"        m 5 n o o o o p q 4 4 4 4 4 4 4 4 4 4 4 4 4 4 4 4 4 4 4 4 r s o o o o o t m m m         ",
"      u ? v w w w w C x y y y y q l z z z z z z z z z z { M y y y y y D w w w w w ) u u u       ",
"      { * | | | | _ } l l l l l - + ~ ~ ~ ~ ~ ~ ~ ~ ~ ~  !!!l l l l l l #!| | | | n z { {       ",
"    N d $!%!%!%!&!'!i i i i i i l (!#!> )!~ ~ ~ ~ ~ *!) D W i i i i i i (!Q %!%!%!%!+ N N N     ",
"    +!e ,!,!,!,!#!d d d d d d d J q -!.!'!~ ~ ~ ~ 0!1!!!2!B d d d d d d d 3!$!,!,!,!| 4!+!+!    ",
"  G a 5!6!6!6!7!{ 8!8!8!8!8!8!8!8!8!8!d l ~ ~ ~ ~ V 4 8!8!8!8!8!8!8!8!8!8!8!k 6!6!6!6!3!G G G   ",
"  9!= :!:!:!:!;!<!<!<!<!<!<!<!<!<!<!<!8!-!~ ~ ~ ~ C =!<!<!<!<!<!<!<!<!<!<!<!>!?!:!:!:!h 9!9!9!  ",
"  @![ A!A!A!5!s B!B!B!B!B!B!B!B!B!B!B!f C!~ ~ ~ ~ 6 1!B!B!B!B!B!B!B!B!B!B!B!B!Q A!A!A!A!c @!@!  ",
"D!E!)!)!)!)!_ ( ( ( ( ( ( ( ( ( ( ( ( >!r ~ ~ ~ ~ > C!( ( ( ( ( ( ( ( ( ( ( ( #!)!)!)!)!F!D!D!D!",
"G!H!I!I!I!I!t J!J!J!J!J!J!J!J!J!J!J!J!( -!~ ~ ~ ~ C +!J!J!J!J!J!J!J!J!J!J!J!J!J!K!I!I!I!( G!G!G!",
"L!L M!M!M!N!O!) ) ) ) ) ) ) ) ) #!#!#!u y ~ ~ ~ ~ H 4!#!#!#!;!) ) ) ) ) ) ) ) ) $!M!M!M!7!L!L!L!",
"! P!~ ~ ~  !* * * * * * * * * >!-!s s s Q!~ ~ ~ ~ K!s s s R!a * * * * * * * * * 7!~ ~ ~ S!T!! ! ",
"U!>! ! ! !,!t t t t t t t t t s ] ~ ~ ~ ~ ~ ~ ~ ~ ~ ~ ~ ~ N!W t t t t t t t t t *! ! ! ! !V!U!U!",
"W!( 6!6!6!| [ [ [ [ [ [ [ [ [ + j C!C!=!<!~ ~ ~ ~ 7!Y C!C!=!l [ [ [ [ [ [ [ [ [ *!6!6!6!6!X!W!W!",
"2 ] w w w n Q!Q!Q!Q!Q!Q!Q!Q!Q!Y!J ' ' = , ~ ~ ~ ~ w y ' ' ' Z!Q!Q!Q!Q!Q!Q!Q!Q!Q!_ w w w w [!2 2 ",
"]!Z *!*!*!*!*!*!*!*!*!*!*!*!*!;!( ~ ~ ~ ~ ~ ~ ~ ~ ~ ~ ~ ~ N!^!*!*!*!*!*!*!*!*!*!*!*!*!*!*!_!]!]!",
"`!N [ [ [ H n n n n n n n n n ) 8 #!#!#!g ~ ~ ~ ~ A!#!#!#!5 x n n n n n n n n n _ [ [ [ [ $ `!`!",
"a!b!6 6 6 t 0!0!0!0!0!0!0!0!0!h '!'!'!Z 8!~ ~ ~ ~ n q '!'!'!#!0!0!0!0!0!0!0!0!0!H 6 6 6 ` a!a!a!",
"c!b d!d!d!d!o $!$!$!$!$!$!$!$!$!$!$!$!7!{ ~ ~ ~ ~ n O $!$!$!$!$!$!$!$!$!$!$!$!$!Y!d!d!d!(!c!c!c!",
"3 e!u u u u p ,!,!,!,!,!,!,!,!,!,!,!,!f!'!~ ~ ~ ~ n ] ,!,!,!,!,!,!,!,!,!,!,!,!f!u u u u g!3 3 3 ",
"  h!P!R!R!R!u :!:!:!:!:!:!:!:!:!:!:!:!%!3!~ ~ ~ ~ o s :!:!:!:!:!:!:!:!:!:!:!:!P R!R!R!R!i!h!h!  ",
"  j!k!f f f f *!l!l!l!l!l!l!l!l!l!l!l!6!'!~ ~ ~ ~ n D l!l!l!l!l!l!l!l!l!l!l!m!] f f f n!j!j!j!  ",
"  < o!p!8!8!8!R!)!q!q!q!q!q!q!q!q!q!q!:!= ~ ~ ~ ~ *!] q!q!q!q!q!q!q!q!q!q!q!p 8!8!8!8!r!< < <   ",
"    9 & P!P!P!P!C ~ ~ ~ ~ ~ ~ ~ ~ ~ S!0!n!~ ~ ~ ~ o ' I!~ ~ ~ ~ ~ ~ ~ ~ ~ A!' P!P!P!(!s!9 9     ",
"    E T B t!t!t!(!f!)!)!)!)!)!)!v b!3!` A!~ ~ ~ ~ ~ t <!n!i )!)!)!)!)!)! !, t!t!t!t!u!E E E     ",
"      H!u!y y y y (!0!,!,!,!,!,!7 8 ~ ~ ~ ~ ~ ~ ~ ~ ~ ~ K!4 ,!,!,!,!,!,!B!y y y y 2!T H!H!      ",
"      v!G y N N N N w!_ 7!7!7!7!J!j!x!x!x!x!x!x!x!x!x!x!H!j 7!7!7!7!7!D N N N N N C!v!v!v!      ",
"        Y y!B t!t!t!t!d > h h h [ ] ] ] ] ] ] ] ] ] ] ] ] d!h h h V Z!t!t!t!t!t!K Y Y Y         ",
"          u!-!n!n!n!n!n!P!` > > > > > > > > > > > > > > > > > > k { n!n!n!n!n!^!a u!u!          ",
"          & & - d d d d d d 3!` ;!;!;!;!;!;!;!;!;!;!;!;!;!;!J!>!w!d d d d d i !!& & &           ",
"            F!F!l 8!8!8!8!8!8!8!z!R!` I I I I I I I I I m , { 8!8!8!8!8!8!J q F!F!F!            ",
"              -!-!- '!f f f f f f f f f z!z z z z z!z!f f f f f f f f f i K -!-!-!              ",
"                  G Y t!Z!Z!Z!Z!Z!Z!Z!Z!Z!Z!Z!Z!Z!Z!Z!Z!Z!Z!Z!Z!Z!Z!8!.!G G G                   ",
"                    {!{!|!P!s s s s s s s s s s s s s s s s s s f M b {!{!{!                    ",
"                      }!}!}!~!y R!` ` ` ` ` ` ` ` ` ` ` ` u J r! #}!}!}!}!                      ",
"                          !#!#!#e!% a N '!B!I + D , } K x!##!#!#!#!#!#                          ",
"                              $#$#$#$#$#$#$#$#$#$#$#$#$#$#$#$#$#$#                              ",
"                                    `!`!`!`!`!`!`!`!`!`!`!`!                                    "};