/* XPM */ 
static const char * ycoin20_xpm[] = {
"20 20 132 2",
"  	c None",
"! 	c black",
"# 	c #131313",
"$ 	c #212121",
"% 	c #191919",
"& 	c #020202",
"' 	c #282828",
"( 	c #838383",
") 	c #C4C4C4",
"* 	c #D9D9D9",
"+ 	c #D1D1D1",
", 	c #9C9C9C",
"- 	c #464646",
". 	c #3F3F3F",
"0 	c #969696",
"1 	c #DCDCDC",
"2 	c #DEDEDE",
"3 	c #DADADA",
"4 	c #B9B9B9",
"5 	c #ABABAB",
"6 	c #B3B3B3",
"7 	c #B8B8B8",
"8 	c #4E4E4E",
"9 	c #383838",
": 	c #787878",
"; 	c #C8C8C8",
"< 	c #E5E5E5",
"= 	c #D8D8D8",
"> 	c #8D8D8D",
"? 	c #575757",
"@ 	c #4F4F4F",
"A 	c #505050",
"B 	c #878787",
"C 	c #717171",
"D 	c #AAAAAA",
"E 	c #D4D4D4",
"F 	c #EAEAEA",
"G 	c #D0D0D0",
"H 	c #7C7C7C",
"I 	c #858585",
"J 	c #8B8B8B",
"K 	c #737373",
"L 	c #727272",
"M 	c #B2B2B2",
"N 	c #E4E4E4",
"O 	c #B0B0B0",
"P 	c #CDCDCD",
"Q 	c #F0F0F0",
"R 	c #E3E3E3",
"S 	c #999999",
"T 	c #939393",
"U 	c #BEBEBE",
"V 	c #EDEDED",
"W 	c white",
"X 	c #FAFAFA",
"Y 	c #D5D5D5",
"Z 	c #929292",
"[ 	c #CACACA",
"] 	c #DDDDDD",
"^ 	c #BABABA",
"_ 	c #8C8C8C",
"` 	c #E1E1E1",
"a 	c #F6F6F6",
"b 	c #A4A4A4",
"c 	c #D3D3D3",
"d 	c #A3A3A3",
"e 	c #A7A7A7",
"f 	c #9B9B9B",
"g 	c #7E7E7E",
"h 	c #FCFCFC",
"i 	c #EEEEEE",
"j 	c #C6C6C6",
"k 	c #A9A9A9",
"l 	c #5D5D5D",
"m 	c #808080",
"n 	c #F8F8F8",
"o 	c #C0C0C0",
"p 	c #A5A5A5",
"q 	c #CBCBCB",
"r 	c #BCBCBC",
"s 	c #2F2F2F",
"t 	c #E7E7E7",
"u 	c #D7D7D7",
"v 	c #C2C2C2",
"w 	c #A0A0A0",
"x 	c #CFCFCF",
"y 	c #BBBBBB",
"z 	c #D6D6D6",
"{ 	c #E2E2E2",
"| 	c #F2F2F2",
"} 	c #B6B6B6",
"~ 	c #B1B1B1",
" !	c #121212",
"!!	c #656565",
"#!	c #C3C3C3",
"$!	c #252525",
"%!	c #BDBDBD",
"&!	c #DBDBDB",
"'!	c #CECECE",
"(!	c #373737",
")!	c #4A4A4A",
"*!	c #909090",
"+!	c #A2A2A2",
",!	c #C5C5C5",
"-!	c #EBEBEB",
".!	c #A1A1A1",
"0!	c #565656",
"1!	c #9E9E9E",
"2!	c #F1F1F1",
"3!	c #BFBFBF",
"4!	c #F9F9F9",
"5!	c #6F6F6F",
"6!	c #D2D2D2",
"7!	c #747474",
"8!	c #E9E9E9",
"9!	c #ECECEC",
":!	c #828282",
";!	c #979797",
"<!	c #AEAEAE",
"=!	c #C1C1C1",
">!	c #C7C7C7",
"?!	c #B7B7B7",
"@!	c #959595",
"A!	c #797979",
"B!	c #888888",
"C!	c #CCCCCC",
"D!	c #C9C9C9",
"E!	c #B5B5B5",
"F!	c #949494",
"G!	c #515151",
"H!	c #606060",
"I!	c #525252",
"            ! ! # $ % & ! !             ",
"        ! ' ( ) * * * + , - ! !         ",
"      . 0 1 2 3 4 5 6 + 2 2 7 8 9       ",
"    : ; < = > ? @ @ @ A : ) < 1 B C     ",
"  D E F G H C I J J J J K L M F N O D   ",
"  P Q R S T T U V W X Y Z T T [ Q ] ^   ",
"_ ` a 4 b b b b D W c d b b b e V a f _ ",
"g h i M M M M M S W j M M M M M Y h k l ",
"m n ] o o o M p D W c p k o o o q n r s ",
"C t u P P P e v ] W Q v w P P P x t y ! ",
"L u z Y Y Y 4 G { W | G } Y Y Y Y u ~  !",
"!!#!G ] ] ] [ 6 U W 2 6 r ] ] ] = #!T $!",
"A 6 %!< < < < < #!W &!< < < < < '!6 L (!",
")!*!+!&!i i i i ,!W 1 i i i i -!5 .!0!)!",
"  K 1!5 2!a a 3!F W 4!E Y a a v 1!B l   ",
"  5!0 5 %!n W O M M M M < W 6!5 p 7!5!  ",
"    I k } y z 8!9!9!9!9!2 v } M _ :!    ",
"      ;!<!=!=!v j ; >!#!=!=!?!f @!      ",
"        A!B!5 ) C!C!C!D!E!F!A!A!        ",
"            G!G!l !!H!I!G!G!            "};