/* XPM */ 
static const char * ycoin80_xpm[] = {
"80 80 221 2",
"  	c None",
"! 	c black",
"# 	c #0B0B0B",
"$ 	c #0E0E0E",
"% 	c #2A2A2A",
"& 	c #484848",
"' 	c #5F5F5F",
"( 	c #737373",
") 	c #828282",
"* 	c #898989",
"+ 	c #8E8E8E",
", 	c #8B8B8B",
"- 	c #868686",
". 	c #777777",
"0 	c #656565",
"1 	c #4F4F4F",
"2 	c #343434",
"3 	c #131313",
"4 	c #161616",
"5 	c #191919",
"6 	c #444444",
"7 	c #787878",
"8 	c #A4A4A4",
"9 	c #CACACA",
": 	c #D0D0D0",
"; 	c #CFCFCF",
"< 	c #B2B2B2",
"= 	c #555555",
"> 	c #212121",
"? 	c #222222",
"@ 	c #4D4D4D",
"A 	c #C6C6C6",
"B 	c #D2D2D2",
"C 	c #CECECE",
"D 	c #9F9F9F",
"E 	c #616161",
"F 	c #272727",
"G 	c #383838",
"H 	c #3D3D3D",
"I 	c #767676",
"J 	c #BABABA",
"K 	c #D3D3D3",
"L 	c #C9C9C9",
"M 	c #494949",
"N 	c #474747",
"O 	c #808080",
"P 	c #D4D4D4",
"Q 	c #979797",
"R 	c #515151",
"S 	c #C2C2C2",
"T 	c #D6D6D6",
"U 	c #8F8F8F",
"V 	c #525252",
"W 	c #666666",
"X 	c #6E6E6E",
"Y 	c #B0B0B0",
"Z 	c #D8D8D8",
"[ 	c #C5C5C5",
"] 	c #7D7D7D",
"^ 	c #717171",
"_ 	c #D9D9D9",
"` 	c #B9B9B9",
"a 	c #B6B6B6",
"b 	c #B7B7B7",
"c 	c #BFBFBF",
"d 	c #CBCBCB",
"e 	c #D7D7D7",
"f 	c #A1A1A1",
"g 	c #7C7C7C",
"h 	c #A7A7A7",
"i 	c #DADADA",
"j 	c #DBDBDB",
"k 	c #AAAAAA",
"l 	c #707070",
"m 	c #5B5B5B",
"n 	c #575757",
"o 	c #696969",
"p 	c #838383",
"q 	c #C4C4C4",
"r 	c #BDBDBD",
"s 	c #818181",
"t 	c #888888",
"u 	c #BBBBBB",
"v 	c #DCDCDC",
"w 	c #A3A3A3",
"x 	c #757575",
"y 	c #5A5A5A",
"z 	c #949494",
"{ 	c #CDCDCD",
"| 	c #919191",
"} 	c #9E9E9E",
"~ 	c #A0A0A0",
" !	c #DDDDDD",
"!!	c #CCCCCC",
"#!	c #959595",
"$!	c #6A6A6A",
"%!	c #848484",
"&!	c #D5D5D5",
"'!	c #ABABAB",
"(!	c #DFDFDF",
")!	c #B1B1B1",
"*!	c #B5B5B5",
"+!	c #E0E0E0",
",!	c #B8B8B8",
"-!	c #7E7E7E",
".!	c #E2E2E2",
"0!	c #909090",
"1!	c #C3C3C3",
"2!	c #E4E4E4",
"3!	c #C0C0C0",
"4!	c #E3E3E3",
"5!	c #E5E5E5",
"6!	c #989898",
"7!	c #939393",
"8!	c #929292",
"9!	c #A8A8A8",
":!	c #E6E6E6",
";!	c #9B9B9B",
"<!	c #C8C8C8",
"=!	c #AFAFAF",
">!	c #E8E8E8",
"?!	c #9D9D9D",
"@!	c #F7F7F7",
"A!	c white",
"B!	c #969696",
"C!	c #9C9C9C",
"D!	c #E9E9E9",
"E!	c #A9A9A9",
"F!	c #A2A2A2",
"G!	c #F6F6F6",
"H!	c #8C8C8C",
"I!	c #ECECEC",
"J!	c #EBEBEB",
"K!	c #6B6B6B",
"L!	c #B3B3B3",
"M!	c #D1D1D1",
"N!	c #DEDEDE",
"O!	c #F8F8F8",
"P!	c #FEFEFE",
"Q!	c #BCBCBC",
"R!	c #797979",
"S!	c #EDEDED",
"T!	c #6F6F6F",
"U!	c #646464",
"V!	c #5D5D5D",
"W!	c #595959",
"X!	c #F4F4F4",
"Y!	c #8A8A8A",
"Z!	c #5C5C5C",
"[!	c #626262",
"]!	c #EEEEEE",
"^!	c #ADADAD",
"_!	c #585858",
"`!	c #999999",
"a!	c #A6A6A6",
"b!	c #727272",
"c!	c #F0F0F0",
"d!	c #565656",
"e!	c #EAEAEA",
"f!	c #545454",
"g!	c #F1F1F1",
"h!	c #B4B4B4",
"i!	c #4E4E4E",
"j!	c #313131",
"k!	c #4B4B4B",
"l!	c #F2F2F2",
"m!	c #404040",
"n!	c #1D1D1D",
"o!	c #636363",
"p!	c #414141",
"q!	c #454545",
"r!	c #232323",
"s!	c #2F2F2F",
"t!	c #BEBEBE",
"u!	c #F5F5F5",
"v!	c #262626",
"w!	c #393939",
"x!	c #1C1C1C",
"y!	c #252525",
"z!	c #F9F9F9",
"{!	c #C7C7C7",
"|!	c #3B3B3B",
"}!	c #FAFAFA",
"~!	c #FBFBFB",
" #	c #686868",
"!#	c #4A4A4A",
"##	c #030303",
"$#	c #FDFDFD",
"%#	c #6C6C6C",
"&#	c #070707",
"'#	c #F3F3F3",
"(#	c #9A9A9A",
")#	c #EFEFEF",
"*#	c #353535",
"+#	c #121212",
",#	c #E7E7E7",
"-#	c #202020",
".#	c #7F7F7F",
"0#	c #E1E1E1",
"1#	c #535353",
"2#	c #292929",
"3#	c #303030",
"4#	c #A5A5A5",
"5#	c #373737",
"6#	c #3F3F3F",
"7#	c #8D8D8D",
"8#	c #434343",
"9#	c #464646",
":#	c #747474",
";#	c #ACACAC",
"<#	c #C1C1C1",
"=#	c #FCFCFC",
">#	c #878787",
"?#	c #6D6D6D",
"@#	c #AEAEAE",
"A#	c #282828",
"B#	c #7B7B7B",
"C#	c #3C3C3C",
"D#	c #858585",
"E#	c #424242",
"F#	c #333333",
"                                                                  ! ! ! ! ! ! ! ! ! ! ! ! ! !                                                                   ",
"                                                        ! ! ! ! ! ! ! ! ! ! ! ! ! ! ! ! ! ! ! ! ! ! ! !                                                         ",
"                                                    ! ! ! ! ! ! ! ! ! ! ! ! ! ! ! ! ! ! ! ! ! ! ! ! ! ! ! !                                                     ",
"                                              # # # # # # # # $ % & ' ( ) * + , - . 0 1 2 3 # # # # # # # # # # #                                               ",
"                                          4 4 4 4 4 4 5 6 7 8 9 : : : : : : : : : : : : : ; < - = > 4 4 4 4 4 4 4 4 4                                           ",
"                                      ? ? ? ? ? ? @ + A B B B B B B B B B B B B B B B B B B B B B C D E F ? ? ? ? ? ? ? ?                                       ",
"                                    G G G G H I J K K K K K K K K K K K K K K K K K K K K K K K K K K K L , M G G G G G G G                                     ",
"                                6 6 6 6 N O A P P P P P P P P P P P P P P P P P P P P P P P P P P P P P P P : Q R 6 6 6 6 6 6 6                                 ",
"                              1 1 1 1 I S T T T T T T T T T T T T T T T T T T T T T T T T T T T T T T T T T T T ; U V 1 1 1 1 1 1                               ",
"                            W W W X Y Z Z Z Z Z Z Z Z Z Z Z Z Z Z Z Z Z Z Z Z Z Z Z Z Z Z Z Z Z Z Z Z Z Z Z Z Z Z Z [ ] W W W W W W                             ",
"                          ^ ^ ^ , C _ _ _ _ _ _ _ _ _ _ _ _ _ _ _ _ _ ; S ` a b c d Z _ _ _ _ _ _ _ _ _ _ _ _ _ _ _ _ e f ^ ^ ^ ^ ^ ^                           ",
"                        g g g h i j j j j j j j j j j j j j C k , l m = = = = = = = n o p f q j j j j j j j j j j j j j j r s g g g g g                         ",
"                      t t * u v v v v v v v v v v v v B w x y y y y y y y y y y y y y y y y y o z A v v v v v v v v v v v v { | t t t t t                       ",
"                    } } ~ L  ! ! ! ! ! ! ! ! ! ! !!!#!$!W W W W W W W W W W W W W W W W W W W W W W %!u  ! ! ! ! ! ! ! ! ! ! !&!h } } } } }                     ",
"                  k k '!; (!(!(!(!(!(!(!(!(!(!T } ( ^ ^ ^ ^ ^ ^ ^ ^ ^ ^ ^ ^ ^ ^ ^ ^ ^ ^ ^ ^ ^ ^ ^ ^ ^ ^ , L (!(!(!(!(!(!(!(!(!(!_ )!k k k k k                   ",
"                *!*!*!: +!+!+!+!+!+!+!+!+!+!,!-!. . . . . . . . . . . . . . . . . . . . . . . . . . . . . 7 8 j +!+!+!+!+!+!+!+!+!i ` *!*!*!*!*!                ",
"              !!!!!!e .!.!.!.!.!.!.!.!.!v f ) ) ) ) ) ) ) ) ) ) ) ) ) ) ) ) ) ) ) ) ) ) ) ) ) ) ) ) ) ) ) ) ) 0!; .!.!.!.!.!.!.!.!.! !{ !!!!!!!!!!              ",
"              1!1!C 2!2!2!2!2!2!2!2!2!&!z t t t t t t t t t t t t t t t t t t t t t t t t t t t t t t t t t t t , S 2!2!2!2!2!2!2!2!2!Z 1!1!1!1!1!              ",
"            J J 3!4!5!5!5!5!5!5!5!5!B 6!7!7!7!7!7!7!7!7!+ + + + + + + + + + + + + + + + + + + + + 8!7!7!7!7!7!7!7!7!r 5!5!5!5!5!5!5!5!5!9 J J J J J             ",
"          h h 9!e :!:!:!:!:!:!:!:!P } ;!;!;!;!;!;!;!;!;!s <!{ { { { { { { { { { { { { { { { { { 8!#!;!;!;!;!;!;!;!;!;!3!:!:!:!:!:!:!:!:!4!=!h h h h h           ",
"          } } r >!>!>!>!>!>!>!>!i f ?!?!?!?!?!?!?!?!?!?!s @!A!A!A!A!A!A!A!A!A!A!A!A!A!A!A!A!A!A!} B!?!?!?!?!?!?!?!?!?!?!A >!>!>!>!>!>!>!>!K } } } } }           ",
"        #!#!C!2!D!D!D!D!D!D!D!.!E!F!F!F!F!F!F!F!F!F!F!F!. G!A!A!A!A!A!A!A!A!A!A!A!A!A!A!A!A!A!A!#!6!F!F!F!F!F!F!F!F!F!F!w K D!D!D!D!D!D!D!D!Y #!#!#!#!#!        ",
"        H!H!q I!I!I!I!I!I!I!J!*!8 8 8 8 8 8 8 8 8 8 8 8 K!L!q M!N!O!A!A!A!A!A!A!A!A!A!P!2!&!L Q!R!B!8 8 8 8 8 8 8 8 8 8 8 9!.!I!I!I!I!I!I!I!+!+ H!H!H!H!        ",
"      R!R!t J!S!S!S!S!S!S!S!d E!E!E!E!E!E!E!E!E!E!E!E!E!T!U!V!W!W!o X!A!A!A!A!A!A!A!A!Y!W!W!Z![!o ;!E!E!E!E!E!E!E!E!E!E!E!E!b I!S!S!S!S!S!S!S!E!R!R!R!R!R!      ",
"      l l u ]!]!]!]!]!]!]!4!^!'!'!'!'!'!'!'!'!'!'!'!'!'!'!'!'!E!~ _!&!A!A!A!A!A!A!A!A!M `!a!'!'!'!'!'!'!'!'!'!'!'!'!'!'!'!'!'!; ]!]!]!]!]!]!]!+!b!l l l l       ",
"      W ^ I!c!c!c!c!c!c!c!3!Y Y Y Y Y Y Y Y Y Y Y Y Y Y Y Y Y Y Y d!B A!A!A!A!A!A!A!A!H Y Y Y Y Y Y Y Y Y Y Y Y Y Y Y Y Y Y Y L!e!c!c!c!c!c!c!c!B!W W W W       ",
"    f!f!C!g!g!g!g!g!g!g!(!h!h!h!h!h!h!h!h!h!h!h!h!h!h!h!h!h!h!h!h!i!; A!A!A!A!A!A!A!A!j!h!h!h!h!h!h!h!h!h!h!h!h!h!h!h!h!h!h!h!h!!!g!g!g!g!g!g!g!!!f!f!f!f!f!    ",
"    k!k!e l!l!l!l!l!l!l!1!b b b b b b b b b b b b b b b b b b b b m!9 A!A!A!A!A!A!A!A!n!b b b b b b b b b b b b b b b b b b b b ,!J!l!l!l!l!l!l!l!o!k!k!k!k!    ",
"  p!p!E X!X!X!X!X!X!X!:!u u u u u u u u u u u u u u u u u u u u u q!d A!A!A!A!A!A!A!A!r!u u u u u u u u u u u u u u u u u u u u u &!X!X!X!X!X!X!X!6!p!p!p!p!    ",
"  s!s!| G!G!G!G!G!G!G!B t!t!t!t!t!t!t!t!t!t!t!t!t!t!t!t!t!t!t!t!t!k!{ A!A!A!A!A!A!A!A!% t!t!t!t!t!t!t!t!t!t!t!t!t!t!t!t!t!t!t!t!t!S u!G!G!G!G!G!G!; s!s!s!s!s!  ",
"  v!v!L @!@!@!@!@!@!u!q S S S S S S S S S S S S S S S S S S S S S f!; A!A!A!A!A!A!A!A!2 S S S S S S S S S S S S S S S S S S S S S S :!@!@!@!@!@!@!@!w!v!v!v!v!  ",
"  x!y!G!z!z!z!z!z!z!>!{!{!{!{!{!{!{!{!{!{!{!{!{!{!{!{!{!{!{!{!{!{!y M!A!A!A!A!A!A!A!A!|!{!{!{!{!{!{!{!{!{!{!{!{!{!{!{!{!{!{!{!{!{!{!_ z!z!z!z!z!z!z!W x!x!x!x!  ",
"  3 i!}!}!}!}!}!}!}!v L L L L L L L L L L L L L L L L L L L L L L ' B A!A!A!A!A!A!A!A!p!L L L L L L L L L L L L L L L L L L L L L L { }!}!}!}!}!}!}!#!3 3 3 3   ",
"! ! T!~!~!~!~!~!~!~!K { { { { { { { { { { { { { { { { { { { { { {  #&!A!A!A!A!A!A!A!A!!#{ { { { { { { { { { { { { { { { { { { { { { { X!~!~!~!~!~!~!Q!! ! ! ! ! ",
"####C!$#$#$#$#$#$#}!C C C C C C C C C C C C C C C C 9 <!<!<!<!<!<!%#T A!A!A!A!A!A!A!A!R <!<!<!<!<!<!L C C C C C C C C C C C C C C C C J!$#$#$#$#$#$#D!##########",
"&#&#c P!P!P!P!P!P!'#M!M!M!M!M!M!M!M!M!M!M!M!M!M!M!M!) ) (#(#(#(#(#(#>!A!A!A!A!A!A!A!A!C!(#(#(#(#(#Q Z!M!M!M!M!M!M!M!M!M!M!M!M!M!M!M!M!5!P!P!P!P!P!P!P!3 &#&#&#&#",
"$ $  !A!A!A!A!A!A!)#P P P P P P P P P P P P P P P P p q A!A!A!A!A!A!A!A!A!A!A!A!A!A!A!A!A!A!A!A!A!z!Z!P P P P P P P P P P P P P P P P .!A!A!A!A!A!A!A!*#$ $ $ $ ",
"+#+#e!O!O!O!O!O!O!,#&!&!&!&!&!&!&!&!&!&!&!&!&!&!&!&!Y!{!A!A!A!A!A!A!A!A!A!A!A!A!A!A!A!A!A!A!A!A!A!z!0 &!&!&!&!&!&!&!&!&!&!&!&!&!&!&!&! !O!O!O!O!O!O!O!M +#+#+#+#",
"4 4 @!O!O!O!O!O!O!,#Z Z Z Z Z Z Z Z Z Z Z Z Z Z Z Z 0!;!b b b b b b )#A!A!A!A!A!A!A!A!` b b b b b h!%#Z Z Z Z Z Z Z Z Z Z Z Z Z Z Z Z  !O!O!O!O!O!O!O!W!4 4 4 4 ",
"n!-#u!u!u!u!u!u!u!:!i i i i i i i i i i i i i i i i ;!I I I I I I $!v A!A!A!A!A!A!A!A!o I I I I I I g i i i i i i i i i i i i i i i i  !u!u!u!u!u!u!u![!n!n!n!n!",
"n!-#g!g!g!g!g!g!g!:! ! ! ! ! ! ! ! ! ! ! ! ! ! ! ! !: {!{!{!{!{!{!.#v A!A!A!A!A!A!A!A!K!{!{!{!{!{!{!L  ! ! ! ! ! ! ! ! ! ! ! ! ! ! ! !(!g!g!g!g!g!g!g!E n!n!n!n!",
"> > e!J!J!J!J!J!J!2!N!N!N!N!N!N!N!N!N!N!N!N!N!N!N!N!7!C!,!,!,!,!,!,!)#A!A!A!A!A!A!A!A!J ,!,!,!,!,!*!X N!N!N!N!N!N!N!N!N!N!N!N!N!N!N!N!+!J!J!J!J!J!J!J!V!> > > > ",
"y!y!j ,#,#,#,#,#,#2!0#0#0#0#0#0#0#0#0#0#0#0#0#0#0#0##!d A!A!A!A!A!A!A!A!A!A!A!A!A!A!A!A!A!A!A!A!A!}!l 0#0#0#0#0#0#0#0#0#0#0#0#0#0#0#0#4!,#,#,#,#,#,#,#1#y!y!y!y!",
"2#2#{!0#0#0#0#0#0#4!2!2!2!2!2!2!2!2!2!2!2!2!2!2!2!2!Q d A!A!A!A!A!A!A!A!A!A!A!A!A!A!A!A!A!A!A!A!A!}!^ 2!2!2!2!2!2!2!2!2!2!2!2!2!2!2!2!4!0#0#0#0#0#0#0#N 2#2#2#2#",
"3#3#< N!N!N!N!N!N!+!5!5!5!5!5!5!5!5!5!5!5!5!5!5!5!5!6!7!9!9!9!9!9!9!J!A!A!A!A!A!A!A!A!E!9!9!9!9!9!4#b!5!5!5!5!5!5!5!5!5!5!5!5!5!5!5!5!.!N!N!N!N!N!N!N!w!3#3#3#3#",
"2 2 (#i i i i i i j >!>!>!>!>!>!>!>!>!>!>!>!>!>!>!>!=!U U U U U U x  !A!A!A!A!A!A!A!A!T!U U U U U U z >!>!>!>!>!>!>!>!>!>!>!>!>!>!>!>!+!i i i i i i { 2 2 2 2 2 ",
"5#5#] P P P P P P P ,#D!D!D!D!D!D!D!D!D!D!D!D!D!D!D!D!D!D!D!D!D!D!H!N!A!A!A!A!A!A!A!A!l D!D!D!D!D!D!D!D!D!D!D!D!D!D!D!D!D!D!D!D!D!D!D!Z P P P P P P ^!5#5#5#5#5#",
"  6#U!: : : : : : : .!I!I!I!I!I!I!I!I!I!I!I!I!I!I!I!I!I!I!I!I!I!I!7#N!A!A!A!A!A!A!A!A!^ I!I!I!I!I!I!I!I!I!I!I!I!I!I!I!I!I!I!I!I!I!I!e!M!: : : : : : 0!6#6#6#6#  ",
"  8#M d { { { { { { _ )#)#)#)#)#)#)#)#)#)#)#)#)#)#)#)#)#)#)#)#)#)#U N!A!A!A!A!A!A!A!A!b!)#)#)#)#)#)#)#)#)#)#)#)#)#)#)#)#)#)#)#)#)#)#4!{ { { { { { { ^ 8#8#8#8#  ",
"  9#9#'!{!{!{!{!{!{!L )#c!c!c!c!c!c!c!c!c!c!c!c!c!c!c!c!c!c!c!c!c!0!N!A!A!A!A!A!A!A!A!( c!c!c!c!c!c!c!c!c!c!c!c!c!c!c!c!c!c!c!c!c!c!&!{!{!{!{!{!{!{!R 9#9#9#9#  ",
"  i!i!t 1!1!1!1!1!1!1!4!'#'#'#'#'#'#'#'#'#'#'#'#'#'#'#'#'#'#'#'#'#| (!A!A!A!A!A!A!A!A!:#'#'#'#'#'#'#'#'#'#'#'#'#'#'#'#'#'#'#'#'#'#c![ 1!1!1!1!1!1!;#i!i!i!i!i!  ",
"  V V W 3!3!3!3!3!3!3!{ u!u!u!u!u!u!u!u!u!u!u!u!u!u!u!u!u!u!u!u!u!8!(!A!A!A!A!A!A!A!A!x u!u!u!u!u!u!u!u!u!u!u!u!u!u!u!u!u!u!u!u!u!N!3!3!3!3!3!3!3!t V V V V     ",
"    = = E!` ` ` ` ` ` ` J!@!@!@!@!@!@!@!@!@!@!@!@!@!@!@!@!@!@!@!@!| N!A!A!A!A!A!A!A!A!( @!@!@!@!@!@!@!@!@!@!@!@!@!@!@!@!@!@!@!@!G!<#` ` ` ` ` ` ` o!= = = =     ",
"    W!W!p a a a a a a a 9 }!}!}!}!}!}!}!}!}!}!}!}!}!}!}!}!}!}!}!}!H!v A!A!A!A!A!A!A!A!K!}!}!}!}!}!}!}!}!}!}!}!}!}!}!}!}!}!}!}!}!(!a a a a a a a ~ W!W!W!W!W!    ",
"      E  #Y L!L!L!L!L!L!L!e!=#=#=#=#=#=#=#=#=#=#=#=#=#=#=#=#=#=#=#>#j A!A!A!A!A!A!A!A!o!=#=#=#=#=#=#=#=#=#=#=#=#=#=#=#=#=#=#=#z!u L!L!L!L!L!L!L!-!E E E E       ",
"      U!U!U ;#;#;#;#;#;#;#u P!A!A!A!A!A!A!A!A!A!A!A!A!A!A!A!A!A!A!-!Z A!A!A!A!A!A!A!A!n A!A!A!A!A!A!A!A!A!A!A!A!A!A!A!A!A!A!A!K ;#;#;#;#;#;#;#8 0 U!U!U!U!      ",
"       # #l 9!E!E!E!E!E!E!E!K =#=#=#=#=#=#=#=#=#=#=#=#=#e!Z L J '!?#X!A!A!A!A!A!A!A!A!) ~ a [ P 2!z!=#=#=#=#=#=#=#=#=#=#=#=#J!k E!E!E!E!E!E!E!p  # # # # #      ",
"        T!T!U a!a!a!a!a!a!a!h 2!G!G!G!G!G!G!G!G!G!G!G!G!V 4#Q!!!v }!A!A!A!A!A!A!A!A!A!A!2!: 3!Y m ; G!G!G!G!G!G!G!G!G!G!G!l!< a!a!a!a!a!a!a!D l T!T!T!T!        ",
"        ( ( . C!D D D D D D D h J!'#'#'#'#'#'#'#'#'#'#'#N l!A!A!A!A!A!A!A!A!A!A!A!A!A!A!A!A!A!A! #L '#'#'#'#'#'#'#'#'#'#'#J D D D D D D D D s ( ( ( ( (         ",
"          . . - C!C!C!C!C!C!C!C!;#>!I!I!I!I!I!I!I!I!I!I!6#l!A!A!A!A!A!A!A!A!A!A!A!A!A!A!A!A!A!A!E S I!I!I!I!I!I!I!I!I!I!3!C!C!C!C!C!C!C!C!| . . . . .           ",
"          -!-!-!#!C!C!C!C!C!C!C!C!@#4!:!:!:!:!:!:!:!:!:!5#F!'!'!'!'!'!'!'!'!'!'!'!'!'!'!'!'!'!'!N Q!:!:!:!:!:!:!:!:!:!S C!C!C!C!C!C!C!C!(#) -!-!-!-!-!          ",
"            ) ) - C!} } } } } } } } @#(!4!4!4!4!4!4!4!4!G A#A#A#A#A#A#A#A#A#A#A#A#A#A#A#A#A#A#A#A#` 4!4!4!4!4!4!4!4!3!} } } } } } } } } H!) ) ) ) )             ",
"              - - + ~ ~ ~ ~ ~ ~ ~ ~ ~ k P v v v v v v v v v v v v v v v v v v v v v v v v v v v v v v v v v v v i a ~ ~ ~ ~ ~ ~ ~ ~ ~ B!- - - - -               ",
"              Y!Y!Y!6!4#4#4#4#4#4#4#4#4#E!L _ _ _ _ _ _ _ _ _ _ _ _ _ _ _ _ _ _ _ _ _ _ _ _ _ _ _ _ _ _ _ _ _ B Y 4#4#4#4#4#4#4#4#4#D , Y!Y!Y!Y!Y!              ",
"                | | | D h h h h h h h h h h ,!: K K K K K K K K K K K K K K K K K K K K K K K K K K K K K K <#E!h h h h h h h h h 8 7!| | | | |                 ",
"                  #!#!#!w E!E!E!E!E!E!E!E!E!E!;#t!!!!!!!!!!!!!!!!!!!!!!!!!!!!!!!!!!!!!!!!!!!!!!!!!!!!!!!q Y E!E!E!E!E!E!E!E!E!E!h 6!#!#!#!#!#!                  ",
"                    `!`!(#h ^!^!^!^!^!^!^!^!^!^!^!)!t!<!L L L L L L L L L L L L L L L L L L L L L L S *!^!^!^!^!^!^!^!^!^!^!^!'!C!`!`!`!`!`!                    ",
"                      * * Y!f Y Y Y Y Y Y Y Y Y Y Y Y < ` c 1!1!1!1!1!1!1!1!1!1!1!1!1!1!1!1!1!<#u L!Y Y Y Y Y Y Y Y Y Y Y Y E!7#* * * * *                       ",
"                        s s s Q )!< < < < < < < < < < < < < L!b J r c c c c c c c c c r u ,!h!< < < < < < < < < < < < < < w %!s s s s s                         ",
"                          R!R!R!t =!a a a a a a a a a a a a a a a a a a a *!*!*!*!a a a a a a a a a a a a a a a a a a *!#!R!R!R!R!R!R!                          ",
"                            o o o T!?!` ` ` ` ` ` ` ` ` ` ` ` ` ` ` ` ` ` ` ` ` ` ` ` ` ` ` ` ` ` ` ` ` ` ` ` ` ` ` '!R!o o o o o o                             ",
"                              E E E E B#^!u u u u u u u u u u u u u u u u u u u u u u u u u u u u u u u u u u u b H!o!E E E E E E                               ",
"                                W!W!W!W!m %!*!c c c c c c c c c c c c c c c c c c c c c c c c c c c c c c c Q!z [!W!W!W!W!W!W!W!                                ",
"                                    R R R R f!-!=!<#<#<#<#<#<#<#<#<#<#<#<#<#<#<#<#<#<#<#<#<#<#<#<#<#<#<#J 7#V!R R R R R R R                                     ",
"                                      p!p!p!p!p!p!E | u q q q q q q q q q q q q q q q q q q q q q <#} l q!p!p!p!p!p!p!p!p!                                      ",
"                                          w!w!w!w!w!w!C#V!D#h 1!<!<!<!<!<!<!<!<!<!<!<!<!<!{!)!U o E#w!w!w!w!w!w!w!w!w!                                          ",
"                                              j!j!j!j!j!j!j!j!F#!#[!I p U #!`!B!7!t B# #V 5#j!j!j!j!j!j!j!j!j!j!j!                                              ",
"                                                    > > > > > > > > > > > > > > > > > > > > > > > > > > > >                                                     ",
"                                                        5 5 5 5 5 5 5 5 5 5 5 5 5 5 5 5 5 5 5 5 5 5 5 5                                                         ",
"                                                                  ! ! ! ! ! ! ! ! ! ! ! ! ! !                                                                   "};