/* XPM */ 
static const char * ycoin32_xpm[] = {
"32 32 168 2",
"  	c None",
"! 	c black",
"# 	c #181818",
"$ 	c #4A4A4A",
"% 	c #6B6B6B",
"& 	c #7E7E7E",
"' 	c #868686",
"( 	c #696969",
") 	c #454545",
"* 	c #141414",
"+ 	c #222222",
", 	c #272727",
"- 	c #686868",
". 	c #B0B0B0",
"0 	c #D4D4D4",
"1 	c #AAAAAA",
"2 	c #626262",
"3 	c #242424",
"4 	c #444444",
"5 	c #737373",
"6 	c #C7C7C7",
"7 	c #D8D8D8",
"8 	c #C2C2C2",
"9 	c #6C6C6C",
": 	c #AEAEAE",
"; 	c #DCDCDC",
"< 	c #D7D7D7",
"= 	c #B4B4B4",
"> 	c #989898",
"? 	c #888888",
"@ 	c #838383",
"A 	c #999999",
"B 	c #B6B6B6",
"C 	c #A6A6A6",
"D 	c #676767",
"E 	c #666666",
"F 	c #8B8B8B",
"G 	c #C8C8C8",
"H 	c #DFDFDF",
"I 	c #9F9F9F",
"J 	c #767676",
"K 	c #717171",
"L 	c #787878",
"M 	c #A4A4A4",
"N 	c #C3C3C3",
"O 	c #898989",
"P 	c #D5D5D5",
"Q 	c #E3E3E3",
"R 	c #C0C0C0",
"S 	c #8D8D8D",
"T 	c #8F8F8F",
"U 	c #C5C5C5",
"V 	c #D2D2D2",
"W 	c #B5B5B5",
"X 	c #E7E7E7",
"Y 	c #BDBDBD",
"Z 	c #9B9B9B",
"[ 	c #B2B2B2",
"] 	c #E9E9E9",
"^ 	c #EAEAEA",
"_ 	c white",
"` 	c #CDCDCD",
"a 	c #A7A7A7",
"b 	c #8C8C8C",
"c 	c #CFCFCF",
"d 	c #EEEEEE",
"e 	c #DDDDDD",
"f 	c #ACACAC",
"g 	c #ABABAB",
"h 	c #878787",
"i 	c #A3A3A3",
"j 	c #919191",
"k 	c #E1E1E1",
"l 	c #7A7A7A",
"m 	c #F1F1F1",
"n 	c #F2F2F2",
"o 	c #BEBEBE",
"p 	c #909090",
"q 	c #EFEFEF",
"r 	c #4B4B4B",
"s 	c #A0A0A0",
"t 	c #F6F6F6",
"u 	c #E4E4E4",
"v 	c #7F7F7F",
"w 	c #E8E8E8",
"x 	c #929292",
"y 	c #2F2F2F",
"z 	c #CBCBCB",
"{ 	c #F9F9F9",
"| 	c #DADADA",
"} 	c #BBBBBB",
"~ 	c #161616",
" !	c #F7F7F7",
"!!	c #FDFDFD",
"#!	c #D1D1D1",
"$!	c #CECECE",
"%!	c #CCCCCC",
"&!	c #9A9A9A",
"'!	c #969696",
"(!	c #131313",
")!	c #232323",
"*!	c #FBFBFB",
"+!	c #A1A1A1",
",!	c #E5E5E5",
"-!	c #D6D6D6",
".!	c #A5A5A5",
"0!	c #0E0E0E",
"1!	c #030303",
"2!	c #3D3D3D",
"3!	c #ECECEC",
"4!	c #A9A9A9",
"5!	c #C1C1C1",
"6!	c #B9B9B9",
"7!	c #A8A8A8",
"8!	c #B1B1B1",
"9!	c #2A2A2A",
":!	c #121212",
";!	c #3A3A3A",
"<!	c #DEDEDE",
"=!	c #BCBCBC",
">!	c #292929",
"?!	c #353535",
"@!	c #DBDBDB",
"A!	c #262626",
"B!	c #1D1D1D",
"C!	c #2B2B2B",
"D!	c #D0D0D0",
"E!	c #D9D9D9",
"F!	c #C6C6C6",
"G!	c #E6E6E6",
"H!	c #343434",
"I!	c #E2E2E2",
"J!	c #979797",
"K!	c #434343",
"L!	c #7D7D7D",
"M!	c #F5F5F5",
"N!	c #B8B8B8",
"O!	c #C9C9C9",
"P!	c #747474",
"Q!	c #5C5C5C",
"R!	c #AFAFAF",
"S!	c #FAFAFA",
"T!	c #BABABA",
"U!	c #565656",
"V!	c #4E4E4E",
"W!	c #595959",
"X!	c #A2A2A2",
"Y!	c #E0E0E0",
"Z!	c #FEFEFE",
"[!	c #858585",
"]!	c #F3F3F3",
"^!	c #BFBFBF",
"_!	c #6A6A6A",
"`!	c #646464",
"a!	c #6F6F6F",
"b!	c #848484",
"c!	c #9C9C9C",
"d!	c #B3B3B3",
"e!	c #8A8A8A",
"f!	c #959595",
"g!	c #B7B7B7",
"h!	c #8E8E8E",
"i!	c #515151",
"j!	c #606060",
"k!	c #9D9D9D",
"l!	c #7B7B7B",
"m!	c #5D5D5D",
"n!	c #393939",
"                      ! ! ! ! ! ! ! ! ! !                       ",
"                  ! ! # $ % & ' & ( ) * ! ! !                   ",
"              + , - . 0 0 0 0 0 0 0 0 0 1 2 3 + +               ",
"            4 5 6 7 7 7 7 7 7 7 7 7 7 7 7 7 8 9 4 4             ",
"          ( : ; ; ; ; < = > ? @ ? A B 7 ; ; ; ; C D E           ",
"        F G H H H 0 I J K K K K K K K L M < H H H N O ?         ",
"      B P Q Q Q R S ? ? ? ? ? ? ? ? ? ? ? T U Q Q Q V W W       ",
"    N P X X X Y Z Z Z Z 1 1 1 1 1 1 1 A Z Z Z N X X X V N N     ",
"    [ ] ^ ^ 6 M M M M W _ _ _ _ _ _ _ : M M M M ` ^ ^ X : a     ",
"  b c d d e f g g g g S h : _ _ _ i h j g g g g f k d d 6 b b   ",
"  l m n n o = = = = = = = p _ _ _ O = = = = = = = 8 n n q K E   ",
"r s t t u o o o o o o o o @ _ _ _ v o o o o o o o o w t t x r r ",
"y z { { < 6 6 6 6 6 6 6 6 T _ _ _ F 6 6 6 6 6 6 6 6 | { { } y y ",
"~  !!!!!#!$!$!$!$!$!` %!%!&!_ _ _ '!%!%!` $!$!$!$!$!0 !!!!X (!(!",
")!*!*!t 0 0 0 0 0 0 +!7 7 ,!_ _ _ k 7 -!.!0 0 0 0 0 0 { *!*!0!1!",
"2!m m 3!| | | | | | g 4!4!5!_ _ _ 6!4!7!8!| | | | | | d m m 9!:!",
";!u u Q <!<!<!<!<!<!=!=!=!U _ _ _ o =!} R <!<!<!<!<!<!u u u >!:!",
"?!| | ; u u u u u u . ; ; X _ _ _ u ; | B u u u u u u @!| | A!B!",
"C!%!D!#!w ] ] ] ] ] E!F!F!f _ _ _ C F!F!; ] ] ] ] ] G!D!D!5!>!>!",
"H!i N N I!q q q q q q q q W _ _ _ W q q q q q q q q H N N J!H!H!",
"K!L!6!6!` M!M!M!M!M!M!M!M!N!_ _ _ N!M!M!M!M!M!M!M!M!O!6!6!P!K!K!",
"  Q!R!. 8!q S!S!S!S!S!S!S!T!_ _ _ } S!S!S!S!S!S!S!^ . . : U!V!  ",
"  W!F X!X!T!_ _ _ _ _ Y!$!T!_ _ _ W $!Q _ _ _ _ Z!W X!X![!W!W!  ",
"    9 > A A F!]!]!]!]!.!_ _ _ _ _ _ _ M ]!]!]!]!^!A A '!_!`!    ",
"    a!' s s s G G!G!G!h b!b!b!b!b!b!b!T G!G!G!8 s s s @ a!a!    ",
"      & c!4!4!4!=!< E!E!E!E!E!E!E!E!E!E!E!-!6!4!4!4!A & &       ",
"        b C . . . d!5!z %!%!%!%!%!%!%!z R d!. . . M F e!        ",
"          '!4!B B B B B W = = d!= = W B B B B B a f!f!          ",
"            O &!6!^!^!^!^!^!^!^!^!^!^!^!^!^!g!> O O             ",
"              ( 9 h!d!F!F!F!F!F!F!F!F!F!. F _!( (               ",
"                  i!i!j!& x k!X!k!p l!m!i!i!i!                  ",
"                      n!n!n!n!n!n!n!n!n!n!                      "};