/* XPM */ 
static const char * ycoin16_xpm[] = {
"16 16 114 2",
"  	c None",
"! 	c black",
"# 	c #090909",
"$ 	c #333333",
"% 	c #444444",
"& 	c #3B3B3B",
"' 	c #1A1A1A",
"( 	c #1B1B1B",
") 	c #808080",
"* 	c #D1D1D1",
"+ 	c #DCDCDC",
", 	c #ADADAD",
"- 	c #3D3D3D",
". 	c #6B6B6B",
"0 	c #D3D3D3",
"1 	c #E0E0E0",
"2 	c #A0A0A0",
"3 	c #686868",
"4 	c #535353",
"5 	c #5C5C5C",
"6 	c #838383",
"7 	c #CACACA",
"8 	c #E3E3E3",
"9 	c #9B9B9B",
": 	c #454545",
"; 	c #D7D7D7",
"< 	c #747474",
"= 	c #616161",
"> 	c #777777",
"? 	c #6F6F6F",
"@ 	c #5D5D5D",
"A 	c #ABABAB",
"B 	c #EAEAEA",
"C 	c #BABABA",
"D 	c #888888",
"E 	c #E7E7E7",
"F 	c #ECECEC",
"G 	c #979797",
"H 	c #919191",
"I 	c white",
"J 	c #F2F2F2",
"K 	c #A7A7A7",
"L 	c #F9F9F9",
"M 	c #CCCCCC",
"N 	c #A4A4A4",
"O 	c #939393",
"P 	c #B9B9B9",
"Q 	c #AAAAAA",
"R 	c #F4F4F4",
"S 	c #D0D0D0",
"T 	c #8C8C8C",
"U 	c #FBFBFB",
"V 	c #BCBCBC",
"W 	c #B4B4B4",
"X 	c #B3B3B3",
"Y 	c #969696",
"Z 	c #B6B6B6",
"[ 	c #B2B2B2",
"] 	c #E2E2E2",
"^ 	c #EBEBEB",
"_ 	c #545454",
"` 	c #C7C7C7",
"a 	c #9F9F9F",
"b 	c #C2C2C2",
"c 	c #B7B7B7",
"d 	c #B1B1B1",
"e 	c #D5D5D5",
"f 	c #E4E4E4",
"g 	c #242424",
"h 	c #7E7E7E",
"i 	c #D4D4D4",
"j 	c #CDCDCD",
"k 	c #E6E6E6",
"l 	c #C6C6C6",
"m 	c #C3C3C3",
"n 	c #D2D2D2",
"o 	c #131313",
"p 	c #6C6C6C",
"q 	c #DADADA",
"r 	c #DEDEDE",
"s 	c #CECECE",
"t 	c #DBDBDB",
"u 	c #252525",
"v 	c #A2A2A2",
"w 	c #C8C8C8",
"x 	c #E9E9E9",
"y 	c #C9C9C9",
"z 	c #E5E5E5",
"{ 	c #A6A6A6",
"| 	c #7B7B7B",
"} 	c #898989",
"~ 	c #A5A5A5",
" !	c #F5F5F5",
"!!	c #D6D6D6",
"#!	c #E8E8E8",
"$!	c #C1C1C1",
"%!	c #606060",
"&!	c #767676",
"'!	c #BBBBBB",
"(!	c #A8A8A8",
")!	c #FEFEFE",
"*!	c #B0B0B0",
"+!	c #8D8D8D",
",!	c #C0C0C0",
"-!	c #DFDFDF",
".!	c #DDDDDD",
"0!	c #C5C5C5",
"1!	c #BFBFBF",
"2!	c #828282",
"3!	c #999999",
"4!	c #6D6D6D",
"5!	c #8A8A8A",
"6!	c #868686",
"7!	c #696969",
"          # $ % & ' !           ",
"      ( ) * + + + + , - !       ",
"    . 0 1 2 3 4 5 6 7 8 9 :     ",
"  9 8 ; < = > > > ? @ A B C D   ",
"  E F G D H * I F , D D 7 J 0   ",
"K L M N N N O I P N N N Q R S T ",
"N U V W W X Y I Z [ W W W ] ^ _ ",
"H ] ` ` ` a b I ] c d ` ` e f g ",
"h * i i i W j I k l m i i n S o ",
"p P q r r 0 P I j s t r r l A u ",
"_ v w x x x y I S x x x z { | & ",
"  } ~ x  !!!S I #!$! ! !$!a %!  ",
"  &!A '!J q (!(!(![ )!0 *!+!3   ",
"    H P ,!s t -!.!e 0!1!N 2!    ",
"      a c 7 M M M M $!K 3!      ",
"          4!2!5!6!&!7!          "};